<svg width="696" height="794" viewBox="0 0 696 794" fill="none" xmlns="http://www.w3.org/2000/svg">
    <g filter="url(#filter0_i_203_118)">
        <path d="M653 322.228C653 486.78 479.227 668.422 361.158 719.74C356.825 721.623 352.705 716.762 354.767 712.511C371.277 678.475 379.951 631.456 348 631.456C179.553 631.456 43 493.01 43 322.228C43 151.446 179.553 13 348 13C516.447 13 653 151.446 653 322.228Z" fill="url(#paint0_linear_203_118)" />
        <path d="M653 322.228C653 486.78 479.227 668.422 361.158 719.74C356.825 721.623 352.705 716.762 354.767 712.511C371.277 678.475 379.951 631.456 348 631.456C179.553 631.456 43 493.01 43 322.228C43 151.446 179.553 13 348 13C516.447 13 653 151.446 653 322.228Z" fill="url(#paint1_radial_203_118)" fill-opacity="0.8" />
        <path d="M653 322.228C653 486.78 479.227 668.422 361.158 719.74C356.825 721.623 352.705 716.762 354.767 712.511C371.277 678.475 379.951 631.456 348 631.456C179.553 631.456 43 493.01 43 322.228C43 151.446 179.553 13 348 13C516.447 13 653 151.446 653 322.228Z" fill="url(#paint2_radial_203_118)" fill-opacity="0.8" />
        <path d="M653 322.228C653 486.78 479.227 668.422 361.158 719.74C356.825 721.623 352.705 716.762 354.767 712.511C371.277 678.475 379.951 631.456 348 631.456C179.553 631.456 43 493.01 43 322.228C43 151.446 179.553 13 348 13C516.447 13 653 151.446 653 322.228Z" fill="url(#paint3_radial_203_118)" fill-opacity="0.8" />
        <path d="M653 322.228C653 486.78 479.227 668.422 361.158 719.74C356.825 721.623 352.705 716.762 354.767 712.511C371.277 678.475 379.951 631.456 348 631.456C179.553 631.456 43 493.01 43 322.228C43 151.446 179.553 13 348 13C516.447 13 653 151.446 653 322.228Z" fill="url(#paint4_linear_203_118)" />
        <path d="M653 322.228C653 486.78 479.227 668.422 361.158 719.74C356.825 721.623 352.705 716.762 354.767 712.511C371.277 678.475 379.951 631.456 348 631.456C179.553 631.456 43 493.01 43 322.228C43 151.446 179.553 13 348 13C516.447 13 653 151.446 653 322.228Z" fill="url(#paint5_radial_203_118)" fill-opacity="0.8" />
        <path d="M653 322.228C653 486.78 479.227 668.422 361.158 719.74C356.825 721.623 352.705 716.762 354.767 712.511C371.277 678.475 379.951 631.456 348 631.456C179.553 631.456 43 493.01 43 322.228C43 151.446 179.553 13 348 13C516.447 13 653 151.446 653 322.228Z" fill="url(#paint6_radial_203_118)" fill-opacity="0.8" />
        <path d="M653 322.228C653 486.78 479.227 668.422 361.158 719.74C356.825 721.623 352.705 716.762 354.767 712.511C371.277 678.475 379.951 631.456 348 631.456C179.553 631.456 43 493.01 43 322.228C43 151.446 179.553 13 348 13C516.447 13 653 151.446 653 322.228Z" fill="url(#paint7_radial_203_118)" fill-opacity="0.8" />
    </g>
    <g opacity="0.3" filter="url(#filter1_if_203_118)">
        <path d="M653 352.228C653 516.78 479.227 698.422 361.158 749.74C356.825 751.623 352.705 746.762 354.767 742.511C371.277 708.475 379.951 661.456 348 661.456C179.553 661.456 43 523.01 43 352.228C43 181.446 179.553 43 348 43C516.447 43 653 181.446 653 352.228Z" fill="url(#paint8_linear_203_118)" />
        <path d="M653 352.228C653 516.78 479.227 698.422 361.158 749.74C356.825 751.623 352.705 746.762 354.767 742.511C371.277 708.475 379.951 661.456 348 661.456C179.553 661.456 43 523.01 43 352.228C43 181.446 179.553 43 348 43C516.447 43 653 181.446 653 352.228Z" fill="url(#paint9_radial_203_118)" fill-opacity="0.8" />
        <path d="M653 352.228C653 516.78 479.227 698.422 361.158 749.74C356.825 751.623 352.705 746.762 354.767 742.511C371.277 708.475 379.951 661.456 348 661.456C179.553 661.456 43 523.01 43 352.228C43 181.446 179.553 43 348 43C516.447 43 653 181.446 653 352.228Z" fill="url(#paint10_radial_203_118)" fill-opacity="0.8" />
        <path d="M653 352.228C653 516.78 479.227 698.422 361.158 749.74C356.825 751.623 352.705 746.762 354.767 742.511C371.277 708.475 379.951 661.456 348 661.456C179.553 661.456 43 523.01 43 352.228C43 181.446 179.553 43 348 43C516.447 43 653 181.446 653 352.228Z" fill="url(#paint11_radial_203_118)" fill-opacity="0.8" />
        <path d="M653 352.228C653 516.78 479.227 698.422 361.158 749.74C356.825 751.623 352.705 746.762 354.767 742.511C371.277 708.475 379.951 661.456 348 661.456C179.553 661.456 43 523.01 43 352.228C43 181.446 179.553 43 348 43C516.447 43 653 181.446 653 352.228Z" fill="url(#paint12_linear_203_118)" />
        <path d="M653 352.228C653 516.78 479.227 698.422 361.158 749.74C356.825 751.623 352.705 746.762 354.767 742.511C371.277 708.475 379.951 661.456 348 661.456C179.553 661.456 43 523.01 43 352.228C43 181.446 179.553 43 348 43C516.447 43 653 181.446 653 352.228Z" fill="url(#paint13_radial_203_118)" fill-opacity="0.8" />
        <path d="M653 352.228C653 516.78 479.227 698.422 361.158 749.74C356.825 751.623 352.705 746.762 354.767 742.511C371.277 708.475 379.951 661.456 348 661.456C179.553 661.456 43 523.01 43 352.228C43 181.446 179.553 43 348 43C516.447 43 653 181.446 653 352.228Z" fill="url(#paint14_radial_203_118)" fill-opacity="0.8" />
        <path d="M653 352.228C653 516.78 479.227 698.422 361.158 749.74C356.825 751.623 352.705 746.762 354.767 742.511C371.277 708.475 379.951 661.456 348 661.456C179.553 661.456 43 523.01 43 352.228C43 181.446 179.553 43 348 43C516.447 43 653 181.446 653 352.228Z" fill="url(#paint15_radial_203_118)" fill-opacity="0.8" />
    </g>
    <path d="M390.275 216C390.277 214.708 390.016 213.429 389.508 212.235C389 211.041 388.255 209.956 387.315 209.042C386.375 208.127 385.258 207.402 384.029 206.906C382.8 206.411 381.483 206.155 380.152 206.154L315.417 206.092C314.086 206.091 312.769 206.344 311.539 206.837C310.309 207.33 309.191 208.053 308.25 208.966C307.308 209.878 306.561 210.962 306.05 212.155C305.54 213.347 305.277 214.626 305.275 215.918C305.274 217.21 305.535 218.489 306.043 219.683C306.551 220.876 307.296 221.961 308.236 222.876C309.176 223.79 310.293 224.516 311.521 225.011C312.75 225.507 314.067 225.762 315.398 225.764L380.133 225.826C381.464 225.827 382.782 225.574 384.012 225.081C385.242 224.588 386.36 223.865 387.301 222.952C388.243 222.04 388.99 220.956 389.501 219.763C390.011 218.57 390.274 217.292 390.275 216Z" fill="#531EA3" />
    <path d="M429.237 255.381C429.239 254.089 428.978 252.81 428.469 251.616C427.96 250.422 427.213 249.337 426.271 248.423C425.329 247.508 424.211 246.783 422.979 246.287C421.748 245.792 420.428 245.536 419.095 245.535L276.399 245.398C273.707 245.395 271.123 246.429 269.218 248.272C267.312 250.114 266.24 252.615 266.237 255.224C266.235 257.832 267.302 260.335 269.204 262.182C271.106 264.028 273.688 265.067 276.38 265.069L419.076 265.207C420.409 265.209 421.729 264.956 422.962 264.463C424.194 263.969 425.314 263.246 426.258 262.334C427.201 261.421 427.95 260.337 428.461 259.145C428.973 257.952 429.236 256.673 429.237 255.381V255.381Z" fill="#531EA3" />
    <path d="M475.199 294.769C475.201 293.477 474.938 292.198 474.427 291.004C473.916 289.81 473.165 288.725 472.219 287.811C471.273 286.896 470.149 286.171 468.912 285.675C467.674 285.18 466.348 284.924 465.009 284.923L230.409 284.697C227.704 284.694 225.108 285.728 223.194 287.571C221.279 289.413 220.202 291.914 220.199 294.523C220.197 297.131 221.269 299.634 223.18 301.481C225.091 303.327 227.685 304.366 230.39 304.369L464.99 304.595C466.329 304.596 467.656 304.343 468.894 303.85C470.132 303.357 471.257 302.634 472.205 301.722C473.154 300.809 473.906 299.725 474.42 298.532C474.933 297.34 475.198 296.061 475.199 294.769V294.769Z" fill="#531EA3" />
    <path d="M429.161 334.068C429.163 332.776 428.902 331.497 428.393 330.303C427.884 329.109 427.137 328.024 426.195 327.109C425.253 326.195 424.135 325.47 422.903 324.974C421.672 324.479 420.352 324.223 419.019 324.222L276.323 324.084C273.631 324.082 271.047 325.116 269.142 326.958C267.236 328.801 266.164 331.302 266.161 333.91C266.159 336.519 267.226 339.022 269.128 340.868C271.03 342.715 273.612 343.754 276.304 343.756L419 343.894C420.333 343.895 421.653 343.642 422.886 343.149C424.118 342.656 425.238 341.933 426.182 341.02C427.125 340.108 427.874 339.024 428.385 337.831C428.897 336.638 429.16 335.36 429.161 334.068V334.068Z" fill="#531EA3" />
    <path d="M390.123 373.373C390.125 372.082 389.864 370.802 389.356 369.608C388.848 368.415 388.103 367.329 387.163 366.415C386.223 365.501 385.106 364.775 383.877 364.28C382.649 363.784 381.331 363.529 380.001 363.528L315.265 363.465C312.578 363.463 310 364.497 308.098 366.339C306.196 368.182 305.126 370.683 305.123 373.291C305.121 375.9 306.186 378.403 308.084 380.249C309.983 382.096 312.559 383.134 315.246 383.137L379.982 383.2C381.312 383.201 382.63 382.948 383.86 382.455C385.09 381.962 386.208 381.238 387.149 380.326C388.091 379.414 388.839 378.33 389.349 377.137C389.859 375.944 390.122 374.665 390.123 373.373Z" fill="#531EA3" />
    <path d="M429.085 412.755C429.087 411.463 428.826 410.184 428.317 408.99C427.808 407.796 427.061 406.711 426.119 405.796C425.177 404.882 424.059 404.157 422.827 403.661C421.596 403.166 420.276 402.91 418.943 402.909L276.247 402.771C273.555 402.769 270.971 403.803 269.066 405.645C267.16 407.488 266.088 409.989 266.085 412.597C266.083 415.206 267.15 417.709 269.052 419.555C270.954 421.402 273.536 422.441 276.228 422.443L418.924 422.581C420.257 422.582 421.577 422.329 422.81 421.836C424.042 421.343 425.162 420.62 426.106 419.707C427.049 418.795 427.798 417.711 428.309 416.518C428.821 415.325 429.084 414.047 429.085 412.755V412.755Z" fill="#531EA3" />
    <path d="M390.047 452.06C390.049 450.769 389.788 449.489 389.28 448.295C388.772 447.102 388.027 446.016 387.087 445.102C386.147 444.188 385.03 443.462 383.802 442.967C382.573 442.471 381.255 442.216 379.925 442.215L315.189 442.152C312.502 442.15 309.924 443.184 308.022 445.026C306.12 446.869 305.05 449.37 305.047 451.978C305.045 454.587 306.11 457.09 308.008 458.936C309.907 460.783 312.483 461.821 315.17 461.824L379.906 461.887C381.236 461.888 382.554 461.635 383.784 461.142C385.014 460.649 386.132 459.926 387.073 459.013C388.015 458.101 388.763 457.017 389.273 455.824C389.783 454.631 390.046 453.352 390.047 452.06Z" fill="#531EA3" />
    <defs>
        <filter id="filter0_i_203_118" x="9.64495" y="13" width="643.355" height="707.157" filterUnits="userSpaceOnUse" color-interpolation-filters="sRGB">
            <feFlood flood-opacity="0" result="BackgroundImageFix" />
            <feBlend mode="normal" in="SourceGraphic" in2="BackgroundImageFix" result="shape" />
            <feColorMatrix in="SourceAlpha" type="matrix" values="0 0 0 0 0 0 0 0 0 0 0 0 0 0 0 0 0 0 127 0" result="hardAlpha" />
            <feOffset dx="-33.355" />
            <feGaussianBlur stdDeviation="33.355" />
            <feComposite in2="hardAlpha" operator="arithmetic" k2="-1" k3="1" />
            <feColorMatrix type="matrix" values="0 0 0 0 0.80575 0 0 0 0 0.7375 0 0 0 0 1 0 0 0 0.3 0" />
            <feBlend mode="normal" in2="shape" result="effect1_innerShadow_203_118" />
        </filter>
        <filter id="filter1_if_203_118" x="0.0814323" y="0.0814323" width="695.837" height="792.994" filterUnits="userSpaceOnUse" color-interpolation-filters="sRGB">
            <feFlood flood-opacity="0" result="BackgroundImageFix" />
            <feBlend mode="normal" in="SourceGraphic" in2="BackgroundImageFix" result="shape" />
            <feColorMatrix in="SourceAlpha" type="matrix" values="0 0 0 0 0 0 0 0 0 0 0 0 0 0 0 0 0 0 127 0" result="hardAlpha" />
            <feOffset dx="-12.7166" dy="-0.794788" />
            <feGaussianBlur stdDeviation="7.94788" />
            <feComposite in2="hardAlpha" operator="arithmetic" k2="-1" k3="1" />
            <feColorMatrix type="matrix" values="0 0 0 0 0.80575 0 0 0 0 0.7375 0 0 0 0 1 0 0 0 0.31 0" />
            <feBlend mode="normal" in2="shape" result="effect1_innerShadow_203_118" />
            <feGaussianBlur stdDeviation="21.4593" result="effect2_foregroundBlur_203_118" />
        </filter>
        <linearGradient id="paint0_linear_203_118" x1="653" y1="-61.8116" x2="-28.5878" y2="684.013" gradientUnits="userSpaceOnUse">
            <stop stop-color="#7041EE" />
            <stop offset="0.527788" stop-color="#8D41EE" />
            <stop offset="1" stop-color="#D641EE" />
        </linearGradient>
        <radialGradient id="paint1_radial_203_118" cx="0" cy="0" r="1" gradientUnits="userSpaceOnUse" gradientTransform="translate(208.424 -141.783) rotate(95.2815) scale(870.478 1246.96)">
            <stop stop-color="#52B6FF" />
            <stop offset="1" stop-color="#8F41EE" stop-opacity="0" />
        </radialGradient>
        <radialGradient id="paint2_radial_203_118" cx="0" cy="0" r="1" gradientUnits="userSpaceOnUse" gradientTransform="translate(205.839 54.2754) rotate(65.6913) scale(345.342 901.37)">
            <stop stop-color="#9DD6FF" />
            <stop offset="1" stop-color="#8F41EE" stop-opacity="0" />
        </radialGradient>
        <radialGradient id="paint3_radial_203_118" cx="0" cy="0" r="1" gradientUnits="userSpaceOnUse" gradientTransform="translate(942.492 557.319) rotate(140.041) scale(546.281 780.782)">
            <stop stop-color="#5263FF" />
            <stop offset="1" stop-color="#8F41EE" stop-opacity="0" />
        </radialGradient>
        <linearGradient id="paint4_linear_203_118" x1="653" y1="-61.8116" x2="-28.5878" y2="684.013" gradientUnits="userSpaceOnUse">
            <stop stop-color="#7041EE" />
            <stop offset="0.527788" stop-color="#8D41EE" />
            <stop offset="1" stop-color="#D641EE" />
        </linearGradient>
        <radialGradient id="paint5_radial_203_118" cx="0" cy="0" r="1" gradientUnits="userSpaceOnUse" gradientTransform="translate(208.424 -141.783) rotate(95.2815) scale(870.478 1246.96)">
            <stop stop-color="#52B6FF" />
            <stop offset="1" stop-color="#8F41EE" stop-opacity="0" />
        </radialGradient>
        <radialGradient id="paint6_radial_203_118" cx="0" cy="0" r="1" gradientUnits="userSpaceOnUse" gradientTransform="translate(205.839 54.2754) rotate(65.6913) scale(345.342 901.37)">
            <stop stop-color="#9DD6FF" />
            <stop offset="1" stop-color="#8F41EE" stop-opacity="0" />
        </radialGradient>
        <radialGradient id="paint7_radial_203_118" cx="0" cy="0" r="1" gradientUnits="userSpaceOnUse" gradientTransform="translate(942.492 557.319) rotate(140.041) scale(546.281 780.782)">
            <stop stop-color="#5263FF" />
            <stop offset="1" stop-color="#8F41EE" stop-opacity="0" />
        </radialGradient>
        <linearGradient id="paint8_linear_203_118" x1="653" y1="-31.8116" x2="-28.5878" y2="714.013" gradientUnits="userSpaceOnUse">
            <stop stop-color="#7041EE" />
            <stop offset="0.527788" stop-color="#8D41EE" />
            <stop offset="1" stop-color="#D641EE" />
        </linearGradient>
        <radialGradient id="paint9_radial_203_118" cx="0" cy="0" r="1" gradientUnits="userSpaceOnUse" gradientTransform="translate(208.424 -111.783) rotate(95.2815) scale(870.478 1246.96)">
            <stop stop-color="#52B6FF" />
            <stop offset="1" stop-color="#8F41EE" stop-opacity="0" />
        </radialGradient>
        <radialGradient id="paint10_radial_203_118" cx="0" cy="0" r="1" gradientUnits="userSpaceOnUse" gradientTransform="translate(205.839 84.2754) rotate(65.6913) scale(345.342 901.37)">
            <stop stop-color="#9DD6FF" />
            <stop offset="1" stop-color="#8F41EE" stop-opacity="0" />
        </radialGradient>
        <radialGradient id="paint11_radial_203_118" cx="0" cy="0" r="1" gradientUnits="userSpaceOnUse" gradientTransform="translate(942.492 587.319) rotate(140.041) scale(546.281 780.782)">
            <stop stop-color="#5263FF" />
            <stop offset="1" stop-color="#8F41EE" stop-opacity="0" />
        </radialGradient>
        <linearGradient id="paint12_linear_203_118" x1="653" y1="-31.8116" x2="-28.5878" y2="714.013" gradientUnits="userSpaceOnUse">
            <stop stop-color="#7041EE" />
            <stop offset="0.527788" stop-color="#8D41EE" />
            <stop offset="1" stop-color="#D641EE" />
        </linearGradient>
        <radialGradient id="paint13_radial_203_118" cx="0" cy="0" r="1" gradientUnits="userSpaceOnUse" gradientTransform="translate(208.424 -111.783) rotate(95.2815) scale(870.478 1246.96)">
            <stop stop-color="#52B6FF" />
            <stop offset="1" stop-color="#8F41EE" stop-opacity="0" />
        </radialGradient>
        <radialGradient id="paint14_radial_203_118" cx="0" cy="0" r="1" gradientUnits="userSpaceOnUse" gradientTransform="translate(205.839 84.2754) rotate(65.6913) scale(345.342 901.37)">
            <stop stop-color="#9DD6FF" />
            <stop offset="1" stop-color="#8F41EE" stop-opacity="0" />
        </radialGradient>
        <radialGradient id="paint15_radial_203_118" cx="0" cy="0" r="1" gradientUnits="userSpaceOnUse" gradientTransform="translate(942.492 587.319) rotate(140.041) scale(546.281 780.782)">
            <stop stop-color="#5263FF" />
            <stop offset="1" stop-color="#8F41EE" stop-opacity="0" />
        </radialGradient>
    </defs>
</svg>
    